<?xml version="1.0" encoding="UTF-8"?>
<svg xmlns="http://www.w3.org/2000/svg" xmlns:xlink="http://www.w3.org/1999/xlink" width="14px" height="14px" viewBox="0 0 14 14" version="1.1">
<g id="surface1">
<path style=" stroke:none;fill-rule:nonzero;fill:rgb(0%,0%,0%);fill-opacity:1;" d="M 12.5625 4.148438 C 12.570312 4.269531 12.570312 4.398438 12.570312 4.519531 C 12.570312 8.3125 9.683594 12.683594 4.40625 12.683594 C 2.777344 12.683594 1.269531 12.214844 0 11.398438 C 0.230469 11.425781 0.453125 11.433594 0.691406 11.433594 C 2.035156 11.433594 3.265625 10.976562 4.253906 10.207031 C 2.992188 10.179688 1.9375 9.355469 1.570312 8.214844 C 1.75 8.242188 1.929688 8.261719 2.113281 8.261719 C 2.371094 8.261719 2.628906 8.226562 2.867188 8.160156 C 1.554688 7.898438 0.570312 6.738281 0.570312 5.34375 L 0.570312 5.308594 C 0.953125 5.523438 1.394531 5.65625 1.863281 5.671875 C 1.089844 5.160156 0.585938 4.277344 0.585938 3.285156 C 0.585938 2.75 0.726562 2.261719 0.976562 1.835938 C 2.390625 3.578125 4.511719 4.714844 6.894531 4.835938 C 6.851562 4.625 6.824219 4.402344 6.824219 4.179688 C 6.824219 2.601562 8.101562 1.3125 9.691406 1.3125 C 10.515625 1.3125 11.261719 1.660156 11.789062 2.21875 C 12.4375 2.09375 13.058594 1.855469 13.609375 1.527344 C 13.394531 2.191406 12.941406 2.75 12.347656 3.105469 C 12.925781 3.042969 13.484375 2.882812 14 2.664062 C 13.609375 3.230469 13.121094 3.738281 12.5625 4.148438 Z M 12.5625 4.148438 "/>
</g>
</svg>
